nColumns=19
nRows=90
DataType=double
version=3
OpenSimVersion=4.1
endheader
time	ground_force_1_vx	ground_force_1_vy	ground_force_1_vz	ground_force_1_px	ground_force_1_py	ground_force_1_pz	ground_force_1_mx	ground_force_1_my	ground_force_1_mz	ground_force_2_vx	ground_force_2_vy	ground_force_2_vz	ground_force_2_px	ground_force_2_py	ground_force_2_pz	ground_force_2_mx	ground_force_2_my	ground_force_2_mz
2.79	0	0	0	-0.000266212	0	-0.000504127	0	0	0	-215.216	1454.02	26.2841	1.12676	0	-0.344843	0	-7.87552	0
2.8	0	0	0	-0.000266212	0	-0.000504127	0	0	0	-244.639	1543.4	-22.741	1.10577	0	-0.347013	0	-3.76906	0
2.81	0	0	0	-0.000266212	0	-0.000504127	0	0	0	-240.063	1645.76	-55.8632	1.07612	0	-0.348802	-0	0.201419	-0
2.82	0	0	0	-0.000266212	0	-0.000504127	0	0	0	-196.187	1799.28	-48.2467	1.04113	0	-0.346009	-0	2.78666	-0
2.83	0	0	0	-0.000266212	0	-0.000504127	0	0	0	-122.049	1919.07	-26.4892	1.00547	0	-0.344165	-0	3.82957	-0
2.84	0	0	0	-0.000266212	0	-0.000504127	0	0	0	-55.3429	1934.08	-21.8584	0.973882	0	-0.345732	-0	4.0133	-0
2.85	0	0	0	-0.000266212	0	-0.000504127	0	0	0	-9.034	1862.44	-31.5406	0.945145	0	-0.347238	-0	4.14815	-0
2.86	0	0	0	-0.000266212	0	-0.000504127	0	0	0	38.7196	1748.95	-40.3034	0.915509	0	-0.346029	-0	4.68815	-0
2.87	0	0	0	-0.000266212	0	-0.000504127	0	0	0	86.7011	1594.6	-45.6935	0.88607	0	-0.343779	-0	5.6458	-0
2.88	0	0	0	-0.000266212	0	-0.000504127	0	0	0	122.826	1389.75	-50.762	0.858013	0	-0.342255	-0	6.71085	-0
2.89	0	0	0	-0.000266212	0	-0.000504127	0	0	0	148.718	1145.41	-53.1797	0.827538	0	-0.341137	-0	7.43895	-0
2.9	0	0	0	-0.000266212	0	-0.000504127	0	0	0	166.136	878.389	-49.3816	0.788667	0	-0.340038	-0	7.46561	-0
2.91	0	0	0	-0.000266212	0	-0.000504127	0	0	0	169.277	613.397	-41.0537	0.740746	0	-0.339524	-0	6.66874	-0
2.92	0	0	0	-0.000266212	0	-0.000504127	0	0	0	150.35	387.611	-32.4255	0.697888	0	-0.339748	-0	5.20407	-0
2.93	0	0	0	-0.000266212	0	-0.000504127	0	0	0	112.547	220.156	-24.7563	0.677675	0	-0.340231	-0	3.42511	-0
2.94	0	0	0	-0.000266212	0	-0.000504127	0	0	0	69.1734	110.792	-17.2161	0.69285	0	-0.336925	-0	1.75571	-0
2.95	0	0	0	-0.000266212	0	-0.000504127	0	0	0	32.6475	48.2907	-9.98482	0.726565	0	-0.324855	-0	0.559675	-0
2.96	0	0	0	-0.000266212	0	-0.000504127	0	0	0	10.336	17.7435	-4.26362	0.696363	0	-0.304297	-0	0.026062	-0
2.97	0	0	0	-0.000266212	0	-0.000504127	0	0	0	0	0	0	-0.000266212	0	-0.000504127	0	0	0
2.98	0	0	0	-0.000266212	0	-0.000504127	0	0	0	0	0	0	-0.000266212	0	-0.000504127	0	0	0
2.99	0	0	0	-0.000266212	0	-0.000504127	0	0	0	0	0	0	-0.000266212	0	-0.000504127	0	0	0
3	0	0	0	-0.000266212	0	-0.000504127	0	0	0	0	0	0	-0.000266212	0	-0.000504127	0	0	0
3.01	0	0	0	-0.000266212	0	-0.000504127	0	0	0	0	0	0	-0.000266212	0	-0.000504127	0	0	0
3.02	0	0	0	-0.000266212	0	-0.000504127	0	0	0	0	0	0	-0.000266212	0	-0.000504127	0	0	0
3.03	0	0	0	-0.000266212	0	-0.000504127	0	0	0	0	0	0	-0.000266212	0	-0.000504127	0	0	0
3.04	0	0	0	-0.000266212	0	-0.000504127	0	0	0	0	0	0	-0.000266212	0	-0.000504127	0	0	0
3.05	-2.46774	10.8834	-5.87538	1.25226	0	-0.251751	0	-2.01061	0	0	0	0	-0.000266212	0	-0.000504127	0	0	0
3.06	-14.5143	45.4691	-16.8887	1.19937	0	-0.275952	-0	0.48279	-0	0	0	0	-0.000266212	0	-0.000504127	0	0	0
3.07	-53.2964	170.772	-36.6566	1.17352	0	-0.281485	-0	4.12667	-0	0	0	0	-0.000266212	0	-0.000504127	0	0	0
3.08	-117.83	449.418	-61.4881	1.16988	0	-0.284596	-0	7.82407	-0	0	0	0	-0.000266212	0	-0.000504127	0	0	0
3.09	-145.987	810.405	-77.435	1.15547	0	-0.289381	-0	10.2445	-0	0	0	0	-0.000266212	0	-0.000504127	0	0	0
3.1	-124.669	1117.98	-69.8182	1.12185	0	-0.295967	-0	10.4955	-0	0	0	0	-0.000266212	0	-0.000504127	0	0	0
3.11	-149.769	1337.64	-41.0846	1.08699	0	-0.301139	-0	8.6175	-0	0	0	0	-0.000266212	0	-0.000504127	0	0	0
3.12	-199.983	1494.9	-12.1673	1.05757	0	-0.303995	-0	5.5103	-0	0	0	0	-0.000266212	0	-0.000504127	0	0	0
3.13	-195.182	1645.22	0.293001	1.02258	0	-0.30636	-0	2.33748	-0	0	0	0	-0.000266212	0	-0.000504127	0	0	0
3.14	-140.705	1788.76	1.80142	0.983917	0	-0.307479	0	-0.107542	0	0	0	0	-0.000266212	0	-0.000504127	0	0	0
3.15	-80.8968	1872.41	5.38442	0.949389	0	-0.30723	0	-1.63029	0	0	0	0	-0.000266212	0	-0.000504127	0	0	0
3.16	-26.4227	1879.47	13.3053	0.917983	0	-0.307314	0	-2.4552	0	0	0	0	-0.000266212	0	-0.000504127	0	0	0
3.17	31.1728	1823.36	22.8423	0.886024	0	-0.308074	0	-2.91542	0	0	0	0	-0.000266212	0	-0.000504127	0	0	0
3.18	86.9144	1711.21	33.0072	0.852824	0	-0.308896	0	-3.21887	0	0	0	0	-0.000266212	0	-0.000504127	0	0	0
3.19	134.494	1542	41.8113	0.818453	0	-0.310004	0	-3.36262	0	0	0	0	-0.000266212	0	-0.000504127	0	0	0
3.2	175.819	1313.39	46.4977	0.781783	0	-0.31137	0	-3.19831	0	0	0	0	-0.000266212	0	-0.000504127	0	0	0
3.21	210.668	1036.51	45.3531	0.740334	0	-0.312712	0	-2.58297	0	0	0	0	-0.000266212	0	-0.000504127	0	0	0
3.22	222.081	750.125	38.9124	0.696663	0	-0.31376	0	-1.51041	0	0	0	0	-0.000266212	0	-0.000504127	0	0	0
3.23	194.972	501.023	30.588	0.661108	0	-0.313599	0	-0.144328	0	0	0	0	-0.000266212	0	-0.000504127	0	0	0
3.24	146.024	308.65	23.3694	0.637625	0	-0.311515	-0	1.25091	-0	0	0	0	-0.000266212	0	-0.000504127	0	0	0
3.25	95.7607	170.252	17.2502	0.616493	0	-0.30906	-0	2.41443	-0	0	0	0	-0.000266212	0	-0.000504127	0	0	0
3.26	51.5364	79.3725	11.4963	0.591032	0	-0.307905	-0	3.16233	-0	0	0	0	-0.000266212	0	-0.000504127	0	0	0
3.27	19.4896	29.8888	6.49719	0.631429	0	-0.308935	-0	3.42129	-0	0	0	0	-0.000266212	0	-0.000504127	0	0	0
3.28	4.83095	10.5739	3.13666	1.0183	0	-0.306575	-0	3.23929	-0	0	0	0	-0.000266212	0	-0.000504127	0	0	0
3.29	0	0	0	-0.000266212	0	-0.000504127	0	0	0	0	0	0	-0.000266212	0	-0.000504127	0	0	0
3.3	0	0	0	-0.000266212	0	-0.000504127	0	0	0	0	0	0	-0.000266212	0	-0.000504127	0	0	0
3.31	0	0	0	-0.000266212	0	-0.000504127	0	0	0	0	0	0	-0.000266212	0	-0.000504127	0	0	0
3.32	0	0	0	-0.000266212	0	-0.000504127	0	0	0	0	0	0	-0.000266212	0	-0.000504127	0	0	0
3.33	0	0	0	-0.000266212	0	-0.000504127	0	0	0	0	0	0	-0.000266212	0	-0.000504127	0	0	0
3.34	0	0	0	-0.000266212	0	-0.000504127	0	0	0	0	0	0	-0.000266212	0	-0.000504127	0	0	0
3.35	0	0	0	-0.000266212	0	-0.000504127	0	0	0	-3.08299	10.0869	-0.615898	1.16403	0	-0.321079	0	-0.310551	0
3.36	0	0	0	-0.000266212	0	-0.000504127	0	0	0	-12.3623	41.6194	0.189077	1.10502	0	-0.375009	0	-2.09405	0
3.37	0	0	0	-0.000266212	0	-0.000504127	0	0	0	-36.8969	161.59	5.69913	1.12625	0	-0.381174	0	-4.36747	0
3.38	0	0	0	-0.000266212	0	-0.000504127	0	0	0	-75.0707	456.606	20.5426	1.13529	0	-0.375585	0	-6.56462	0
3.39	0	0	0	-0.000266212	0	-0.000504127	0	0	0	-111.215	889.076	41.7094	1.13078	0	-0.366683	0	-7.9521	0
3.4	0	0	0	-0.000266212	0	-0.000504127	0	0	0	-148.939	1219.61	49.7071	1.11893	0	-0.360186	0	-8.05475	0
3.41	0	0	0	-0.000266212	0	-0.000504127	0	0	0	-200.073	1334.09	28.2627	1.10065	0	-0.361881	0	-7.06993	0
3.42	0	0	0	-0.000266212	0	-0.000504127	0	0	0	-245.274	1388.57	-1.78835	1.07468	0	-0.368993	0	-5.83439	0
3.43	0	0	0	-0.000266212	0	-0.000504127	0	0	0	-244.419	1526.13	-4.31532	1.04019	0	-0.370439	0	-5.19735	0
3.44	0	0	0	-0.000266212	0	-0.000504127	0	0	0	-189.278	1714.7	17.38	1.0006	0	-0.36723	0	-5.3341	0
3.45	0	0	0	-0.000266212	0	-0.000504127	0	0	0	-118.444	1837.79	29.5037	0.963864	0	-0.367131	0	-5.68436	0
3.46	0	0	0	-0.000266212	0	-0.000504127	0	0	0	-64.7699	1855.08	20.4336	0.930906	0	-0.369934	0	-5.48062	0
3.47	0	0	0	-0.000266212	0	-0.000504127	0	0	0	-15.2305	1810.4	5.88504	0.895796	0	-0.370889	0	-4.2552	0
3.48	0	0	0	-0.000266212	0	-0.000504127	0	0	0	44.773	1724.34	-4.7917	0.858074	0	-0.369223	0	-1.98604	0
3.49	0	0	0	-0.000266212	0	-0.000504127	0	0	0	108.584	1579.53	-16.1758	0.820434	0	-0.367377	-0	0.974149	-0
3.5	0	0	0	-0.000266212	0	-0.000504127	0	0	0	174.517	1376.44	-30.3832	0.780433	0	-0.36628	-0	4.01471	-0
3.51	0	0	0	-0.000266212	0	-0.000504127	0	0	0	230.88	1144.36	-41.8339	0.737821	0	-0.364966	-0	6.44301	-0
3.52	0	0	0	-0.000266212	0	-0.000504127	0	0	0	248.249	903.962	-45.0067	0.698141	0	-0.363154	-0	7.72767	-0
3.53	0	0	0	-0.000266212	0	-0.000504127	0	0	0	226.661	664.617	-40.8191	0.662337	0	-0.361742	-0	7.6938	-0
3.54	0	0	0	-0.000266212	0	-0.000504127	0	0	0	185.513	443.232	-34.0262	0.62859	0	-0.361863	-0	6.5483	-0
3.55	0	0	0	-0.000266212	0	-0.000504127	0	0	0	136.751	260.856	-26.7866	0.598615	0	-0.362907	-0	4.7438	-0
3.56	0	0	0	-0.000266212	0	-0.000504127	0	0	0	82.746	130.089	-18.5781	0.581016	0	-0.362481	-0	2.79241	-0
3.57	0	0	0	-0.000266212	0	-0.000504127	0	0	0	36.696	53.7378	-10.36	0.605689	0	-0.353413	-0	1.11167	-0
3.58	0	0	0	-0.000266212	0	-0.000504127	0	0	0	10.2623	19.9702	-4.35938	0.762389	0	-0.322397	0	-0.076578	0
3.59	0	0	0	-0.000266212	0	-0.000504127	0	0	0	0	0	0	-0.000266212	0	-0.000504127	0	0	0
3.6	0	0	0	-0.000266212	0	-0.000504127	0	0	0	0	0	0	-0.000266212	0	-0.000504127	0	0	0
3.61	0	0	0	-0.000266212	0	-0.000504127	0	0	0	0	0	0	-0.000266212	0	-0.000504127	0	0	0
3.62	0	0	0	-0.000266212	0	-0.000504127	0	0	0	0	0	0	-0.000266212	0	-0.000504127	0	0	0
3.63	0	0	0	-0.000266212	0	-0.000504127	0	0	0	0	0	0	-0.000266212	0	-0.000504127	0	0	0
3.64	0	0	0	-0.000266212	0	-0.000504127	0	0	0	0	0	0	-0.000266212	0	-0.000504127	0	0	0
3.65	0	0	0	-0.000266212	0	-0.000504127	0	0	0	0	0	0	-0.000266212	0	-0.000504127	0	0	0
3.66	-5.29512	18.7412	-6.39434	1.0968	0	-0.285923	-0	0.831482	-0	0	0	0	-0.000266212	0	-0.000504127	0	0	0
3.67	-23.9503	74.7656	-16.1694	1.17383	0	-0.304456	-0	3.22312	-0	0	0	0	-0.000266212	0	-0.000504127	0	0	0
3.68	-69.1948	246.425	-29.5052	1.16733	0	-0.309179	-0	5.67375	-0	0	0	0	-0.000266212	0	-0.000504127	0	0	0
